<?xml version="1.0" encoding="UTF-8"?>
<!DOCTYPE svg PUBLIC "-//W3C//DTD SVG 1.1//EN" "http://www.w3.org/Graphics/SVG/1.1/DTD/svg11.dtd">
<!-- Creator: CorelDRAW -->
<svg xmlns="http://www.w3.org/2000/svg" xml:space="preserve" width="34.7mm" height="9.02mm" version="1.1" style="shape-rendering:geometricPrecision; text-rendering:geometricPrecision; image-rendering:optimizeQuality; fill-rule:evenodd; clip-rule:evenodd"
viewBox="0 0 3470 902"
 xmlns:xlink="http://www.w3.org/1999/xlink"
 xmlns:xodm="http://www.corel.com/coreldraw/odm/2003">
 <defs>
  <style type="text/css">
   <![CDATA[
    .str0 {stroke:#636B2F;stroke-width:25;stroke-miterlimit:22.9256}
    .fil0 {fill:none}
    .fil2 {fill:#323467;fill-rule:nonzero}
    .fil1 {fill:#636B2F;fill-rule:nonzero}
   ]]>
  </style>
    <mask id="id0">
  <linearGradient id="id1" gradientUnits="userSpaceOnUse" x1="781.39" y1="343.95" x2="2532.85" y2="1951.81">
   <stop offset="0" style="stop-opacity:1; stop-color:white"/>
   <stop offset="1" style="stop-opacity:0; stop-color:white"/>
  </linearGradient>
     <rect style="fill:url(#id1)" x="648.01" y="412.62" width="550.88" height="393.2"/>
    </mask>
   <mask id="id2">
  <linearGradient id="id3" gradientUnits="userSpaceOnUse" x1="602.85" y1="248.69" x2="3357.21" y2="2396.34">
   <stop offset="0" style="stop-opacity:1; stop-color:white"/>
   <stop offset="1" style="stop-opacity:0; stop-color:white"/>
  </linearGradient>
    <rect style="fill:url(#id3)" x="701.86" y="113.63" width="634.37" height="563.09"/>
   </mask>
 </defs>
 <g id="Camada_x0020_1">
  <metadata id="CorelCorpID_0Corel-Layer"/>
  <rect class="fil0" x="-0.67" y="6.2" width="3470" height="902"/>
  <g>
   <path class="fil1" style="mask:url(#id0)" d="M655.69 780.6l19.72 15.36 -7.68 9.86 -19.72 -15.36 7.68 -9.86zm295.72 -339.12l-276 354.48 -19.72 -15.36 276 -354.48 20.17 0.62 -0.45 14.74zm-19.72 -15.36l10.51 -13.5 9.66 14.12 -20.17 -0.62zm239.52 365.32l-239.97 -350.58 20.62 -14.12 239.97 350.58 -20.62 14.12zm0 0l20.62 -14.12 7.06 10.31 -20.62 14.12 -7.06 -10.31z"/>
  </g>
  <polyline class="fil0 str0" style="mask:url(#id2)" points="714.36,126.85 941.94,375.85 1143.25,126.13 1323.73,126.6 1059.68,434.69 1232.38,664.22 "/>
  <path class="fil2" d="M1538.42 459.79l0 103.06 23.36 0c23.75,0 40.22,-3.88 49.43,-11.69 9.21,-7.75 13.78,-21.1 13.78,-39.95 0,-18.46 -5.01,-31.71 -15.07,-39.57 -10.02,-7.92 -26.87,-11.85 -50.51,-11.85l-20.99 0zm0 -107.89l0 97.56 28.69 0c17.99,0 31.12,-3.88 39.36,-11.69 8.24,-7.75 12.38,-20.03 12.38,-36.88 0,-17.82 -3.93,-30.47 -11.73,-37.9 -7.86,-7.38 -22.56,-11.09 -44.1,-11.09l-24.6 0zm-55.89 -10.66c0.54,0 1.24,0.05 2.21,0.16 0.96,0.11 1.66,0.16 2.2,0.16 0.33,0 1.3,0 2.86,0 9.15,0.43 18.25,0.64 27.29,0.64 8.51,0 18.47,-0.16 29.83,-0.48 11.36,-0.32 18.47,-0.48 21.32,-0.48 27.03,0 47.01,4.68 59.93,14.1 12.97,9.42 19.44,23.96 19.44,43.67 0,15.02 -4.42,27.19 -13.2,36.5 -8.77,9.32 -21.8,15.67 -39.03,19.01 21.11,4.36 36.67,11.14 46.63,20.35 9.96,9.26 14.96,21.59 14.96,36.93 0,11.15 -2.1,20.9 -6.3,29.29 -4.2,8.35 -10.44,15.13 -18.62,20.41 -6.52,4.2 -14.6,7.21 -24.23,8.99 -9.59,1.78 -24.66,2.69 -45.18,2.69 -4.63,0 -11.68,-0.1 -21.1,-0.32 -9.48,-0.21 -16.69,-0.32 -21.65,-0.32 -9.26,0 -16.52,0.05 -21.8,0.16 -5.33,0.11 -10.5,0.27 -15.56,0.48l0 -10.33c11.36,0 18.57,-1.46 21.59,-4.37 3.07,-2.85 4.58,-10.22 4.58,-21.96l0 -158.46c0,-11.9 -1.46,-19.16 -4.42,-21.86 -2.96,-2.63 -10.18,-4.09 -21.75,-4.3l0 -10.66zm285.84 44.25l-32.95 91.1 63.69 0 -30.74 -91.1zm6.14 -47.16l6.78 0 74.63 206.86c2.74,7.16 5.65,11.84 8.72,14.16 3.12,2.31 7.86,3.5 14.32,3.5l1.24 0 0 10.33c-7.86,-0.43 -15.02,-0.75 -21.43,-0.97 -6.46,-0.21 -11.79,-0.32 -16.1,-0.32 -6.3,0 -13.08,0.11 -20.3,0.32 -7.21,0.22 -14.64,0.54 -22.29,0.97l0 -10.33 1.56 0c7.06,0 12.23,-1.08 15.46,-3.23 3.28,-2.16 4.9,-5.6 4.9,-10.34 0,-1.67 -0.06,-3.23 -0.22,-4.69 -0.16,-1.4 -0.43,-2.63 -0.75,-3.66l-17.99 -53.68 -70.47 0 -12.66 35.21c-2.69,7.65 -4.52,13.3 -5.43,16.86 -0.87,3.6 -1.35,6.67 -1.35,9.31 0,5.17 1.29,8.72 3.88,10.77 2.58,1.99 7.37,3.18 14.32,3.61l0 10.17c-5.33,-0.43 -10.55,-0.75 -15.62,-0.97 -5.06,-0.21 -9.74,-0.32 -14.16,-0.32 -3.5,0 -7.59,0.11 -12.33,0.32 -4.73,0.22 -9.74,0.54 -15.12,0.97l0 -10.33 1.72 0c6.3,0 10.98,-1.13 13.94,-3.34 3.02,-2.21 5.87,-7 8.62,-14.32l76.13 -206.86zm262.53 19.33l2.74 -11.96 6.79 0c-0.16,6.52 -0.33,12.28 -0.43,17.29 -0.16,4.95 -0.22,9.15 -0.22,12.49 0,4.95 0.06,10.28 0.22,15.94 0.1,5.7 0.27,11.79 0.43,18.3l-7.43 0c-1.78,-19.76 -7.76,-34.83 -17.88,-45.17 -10.12,-10.39 -23.9,-15.56 -41.4,-15.56 -13.73,0 -24.93,4.09 -33.65,12.33 -8.67,8.18 -13.03,18.68 -13.03,31.55 0,11.14 3.28,20.14 9.8,27.03 6.51,6.89 19.17,13.84 38.01,20.78 31.55,11.9 51.85,22.67 60.95,32.41 9.1,9.75 13.67,22.35 13.67,37.8 0,19.06 -7.16,34.67 -21.53,46.89 -14.33,12.23 -32.9,18.31 -55.57,18.31 -11.47,0 -22.29,-1.94 -32.41,-5.87 -10.18,-3.87 -19.87,-9.8 -29.13,-17.71l-3.44 14.54 -7.16 0c0,-7.6 0.1,-15.51 0.32,-23.86 0.21,-8.29 0.32,-12.81 0.32,-13.51 0,-0.86 -0.11,-5.22 -0.32,-13.19 -0.22,-7.92 -0.32,-15.51 -0.32,-22.78l9.04 0c1.08,22.83 7.11,40.49 18.2,53.15 11.09,12.59 26.17,18.89 45.17,18.89 14.48,0 26.17,-4.14 34.94,-12.43 8.78,-8.35 13.14,-19.39 13.14,-33.12 0,-10.44 -3.34,-19.06 -9.96,-25.89 -6.62,-6.84 -18.74,-13.63 -36.4,-20.36 -1.88,-0.7 -4.79,-1.77 -8.66,-3.12 -20.19,-7.38 -34.3,-13.94 -42.27,-19.7 -8.13,-6.03 -14,-12.71 -17.66,-20.03 -3.71,-7.38 -5.54,-16.32 -5.54,-26.82 0,-19.92 6.4,-35.85 19.22,-47.92 12.76,-12 29.77,-18.03 50.93,-18.03 11.79,0 22.61,1.56 32.41,4.74 9.8,3.12 19.17,8.02 28.11,14.59zm229.74 -17.39c0.43,10.12 0.91,20.19 1.4,30.2 0.54,10.02 1.18,20.19 1.88,30.53l-8.07 0c-2.1,-19.6 -6.95,-32.68 -14.54,-39.25 -7.54,-6.57 -22.61,-9.85 -45.12,-9.85l-50.18 0 0 93.68 25.25 0c15.24,0 24.82,-2.26 28.81,-6.78 3.93,-4.53 6.24,-14.43 7,-29.72l7.75 0c-0.32,10.6 -0.54,19.65 -0.7,27.08 -0.16,7.43 -0.27,13.13 -0.27,17.12 0,5.38 0.11,11.84 0.27,19.49 0.16,7.65 0.38,16.53 0.7,26.76l-7.59 0c-0.86,-18.63 -3.29,-30.58 -7.27,-35.81 -3.98,-5.22 -13.57,-7.8 -28.7,-7.8l-25.25 0 0 106.93 64.07 0c22.34,0 37.53,-3.77 45.5,-11.36 7.97,-7.6 12.92,-22.3 14.8,-44.21l8.08 0c-1.45,13.79 -2.64,25.9 -3.39,36.4 -0.81,10.55 -1.4,20.35 -1.83,29.5l-183.12 0 0 -10.33c11.36,0 18.58,-1.46 21.59,-4.37 3.07,-2.85 4.58,-10.22 4.58,-22.02l0 -158.34c0,-11.9 -1.45,-19.17 -4.42,-21.86 -2.96,-2.69 -10.17,-4.15 -21.75,-4.36l0 -10.66c35.11,0 66.93,-0.11 95.46,-0.33 28.48,-0.21 53.52,-0.43 75.06,-0.64z"/>
  <path class="fil1" d="M2376.7 349.94l0 210.95 25.89 0c14.92,0 26.49,-0.81 34.73,-2.37 8.18,-1.56 15.56,-4.2 22.07,-7.91 13.57,-7.43 23.8,-19.22 30.69,-35.38 6.9,-16.15 10.34,-36.23 10.34,-60.19 0,-21.27 -2.74,-39.3 -8.18,-54.11 -5.49,-14.86 -13.68,-26.44 -24.66,-34.73 -7.54,-5.92 -16.37,-10.07 -26.49,-12.54 -10.12,-2.48 -24.44,-3.72 -43.07,-3.72l-21.32 0zm-55.89 -10.66c0.64,0 1.51,0.05 2.69,0.16 1.13,0.11 1.99,0.16 2.53,0.16 0.38,0 1.67,0 3.77,0 8.72,0.43 16.91,0.65 24.61,0.65 6.83,0 15.82,-0.16 27.02,-0.49 11.2,-0.32 18.96,-0.48 23.26,-0.48 41.57,0 73.6,10.12 96.16,30.37 22.56,20.24 33.82,48.99 33.82,86.25 0,37.42 -10.67,66.01 -31.93,85.77 -21.32,19.71 -52.12,29.56 -92.5,29.56 -5.71,0 -14.97,-0.11 -27.84,-0.32 -12.87,-0.22 -22.99,-0.33 -30.36,-0.33 -9.37,0 -16.1,0.06 -20.25,0.16 -4.2,0.11 -7.81,0.27 -10.98,0.49l0 -10.34c11.36,0 18.57,-1.45 21.59,-4.36 3.07,-2.85 4.58,-10.23 4.58,-21.97l0 -158.45c0,-11.85 -1.46,-19.17 -4.42,-21.81 -2.96,-2.69 -10.18,-4.14 -21.75,-4.36l0 -10.66zm391.85 122.76c-11.57,4.95 -20.46,12.06 -26.59,21.32 -6.2,9.26 -9.26,20.03 -9.26,32.3 0,14.54 4.63,26.28 13.83,35.27 9.21,8.99 21.27,13.51 36.24,13.51 14.43,0 26.16,-4.41 35.21,-13.19 9.05,-8.77 13.57,-20.08 13.57,-33.97 0,-13.25 -4.04,-23.69 -12.06,-31.34 -8.08,-7.64 -25.04,-15.61 -50.94,-23.9zm39.09 -8.83c17.39,5.27 30.32,12.54 38.71,21.8 8.46,9.26 12.66,20.79 12.66,34.57 0,19.54 -6.89,35.21 -20.68,46.95 -13.78,11.74 -32.19,17.61 -55.19,17.61 -21.8,0 -39.35,-5.55 -52.71,-16.59 -13.35,-11.04 -20.02,-25.41 -20.02,-43.07 0,-13.62 3.93,-25.04 11.73,-34.3 7.86,-9.26 20.09,-16.9 36.67,-23.04 -13.68,-5.33 -23.64,-12.22 -29.78,-20.62 -6.19,-8.46 -9.26,-19.33 -9.26,-32.68 0,-18.26 5.98,-33.06 17.93,-44.37 11.9,-11.31 27.68,-16.96 47.22,-16.96 18.42,0 33.55,5.22 45.34,15.67 11.84,10.5 17.76,23.74 17.76,39.84 0,12.01 -3.39,22.61 -10.17,31.93 -6.79,9.31 -16.85,17.07 -30.21,23.26zm-9.74 -4.09c9.63,-4.96 16.9,-11.58 21.8,-19.92 4.9,-8.35 7.33,-18.31 7.33,-29.89 0,-14.05 -3.72,-25.46 -11.1,-34.13 -7.43,-8.67 -17.06,-12.98 -28.91,-12.98 -12.81,0 -23.26,4.09 -31.28,12.28 -8.02,8.18 -12.06,18.79 -12.06,31.71 0,12.38 3.93,22.51 11.79,30.31 7.92,7.81 22.02,15.35 42.43,22.62z"/>
 </g>
</svg>
