<svg width="132" height="35" viewBox="0 0 132 35" fill="none" xmlns="http://www.w3.org/2000/svg">
<path fill-rule="evenodd" clip-rule="evenodd" d="M118.04 12.8179C117.964 12.777 117.843 12.7566 117.677 12.7566H117.421V13.355H117.692C117.819 13.355 117.914 13.3429 117.977 13.3181C118.094 13.2734 118.153 13.1873 118.153 13.06C118.153 12.9399 118.115 12.8592 118.04 12.8179ZM117.717 12.5578C117.927 12.5578 118.082 12.5777 118.18 12.6171C118.356 12.6881 118.444 12.8281 118.444 13.0356C118.444 13.1839 118.388 13.2923 118.278 13.3618C118.219 13.3988 118.137 13.426 118.032 13.442C118.165 13.4625 118.262 13.5164 118.324 13.6039C118.385 13.6914 118.416 13.7765 118.416 13.8601V13.9806C118.416 14.019 118.418 14.0599 118.421 14.1036C118.424 14.1469 118.428 14.1756 118.435 14.1892L118.446 14.2096H118.165C118.164 14.2047 118.163 14.1989 118.161 14.1936C118.16 14.1877 118.158 14.1819 118.157 14.1751L118.151 14.1221V13.9913C118.151 13.8003 118.097 13.6749 117.99 13.6136C117.927 13.5777 117.816 13.5602 117.657 13.5602H117.421V14.2096H117.122V12.5578H117.717ZM116.805 12.4737C116.547 12.727 116.418 13.0318 116.418 13.39C116.418 13.7507 116.546 14.0584 116.803 14.3122C117.062 14.5669 117.376 14.6933 117.746 14.6933C118.115 14.6933 118.43 14.5669 118.688 14.3122C118.947 14.0584 119.076 13.7507 119.076 13.39C119.076 13.0318 118.947 12.727 118.688 12.4737C118.428 12.22 118.114 12.0926 117.746 12.0926C117.379 12.0926 117.066 12.22 116.805 12.4737ZM118.842 14.4561C118.54 14.7511 118.175 14.8984 117.746 14.8984C117.317 14.8984 116.952 14.7511 116.652 14.4561C116.352 14.1625 116.202 13.8061 116.202 13.3881C116.202 12.9739 116.354 12.62 116.656 12.3259C116.957 12.0338 117.32 11.8875 117.746 11.8875C118.175 11.8875 118.54 12.0338 118.842 12.3259C119.144 12.6186 119.296 12.9725 119.296 13.3881C119.296 13.8047 119.144 14.161 118.842 14.4561Z" fill="#663CDC"/>
...
</svg>