<?xml version="1.0" encoding="UTF-8"?>
<!DOCTYPE svg PUBLIC "-//W3C//DTD SVG 1.1//EN" "http://www.w3.org/Graphics/SVG/1.1/DTD/svg11.dtd">
<!-- Creator: CorelDRAW -->
<svg xmlns="http://www.w3.org/2000/svg" xml:space="preserve" width="11.3452mm" height="2.9632mm" version="1.1" style="shape-rendering:geometricPrecision; text-rendering:geometricPrecision; image-rendering:optimizeQuality; fill-rule:evenodd; clip-rule:evenodd"
viewBox="0 0 1134.52 296.32"
 xmlns:xlink="http://www.w3.org/1999/xlink"
 xmlns:xodm="http://www.corel.com/coreldraw/odm/2003">
 <defs>
  <style type="text/css">
   <![CDATA[
    .str0 {stroke:#636B2F;stroke-width:10;stroke-miterlimit:22.9256}
    .fil1 {fill:none}
    .fil2 {fill:#323467;fill-rule:nonzero}
    .fil0 {fill:#636B2F;fill-rule:nonzero}
   ]]>
  </style>
    <mask id="id0">
  <linearGradient id="id1" gradientUnits="userSpaceOnUse" x1="53.88" y1="99.04" x2="809.7" y2="797.76">
   <stop offset="0" style="stop-opacity:1; stop-color:white"/>
   <stop offset="1" style="stop-opacity:0; stop-color:white"/>
  </linearGradient>
     <rect style="fill:url(#id1)" x="-6.48" y="131.29" width="239.26" height="169.59"/>
    </mask>
   <mask id="id2">
  <linearGradient id="id3" gradientUnits="userSpaceOnUse" x1="-24.88" y1="56.77" x2="1173.84" y2="995.47">
   <stop offset="0" style="stop-opacity:1; stop-color:white"/>
   <stop offset="1" style="stop-opacity:0; stop-color:white"/>
  </linearGradient>
    <rect style="fill:url(#id3)" x="16.85" y="0.98" width="276.07" height="243.94"/>
   </mask>
 </defs>
 <g id="Camada_x0020_1">
  <metadata id="CorelCorpID_0Corel-Layer"/>
  <g>
   <path class="fil0" style="mask:url(#id0)" d="M-3.4 290.78l7.88 6.16 -3.08 3.94 -7.88 -6.16 3.08 -3.94zm128.39 -147.96l-120.51 154.12 -7.88 -6.16 120.51 -154.12 8.06 0.25 -0.18 5.91zm-7.88 -6.16l4.2 -5.37 3.86 5.62 -8.06 -0.25zm104.6 158.33l-104.78 -152.42 8.24 -5.66 104.78 152.42 -8.24 5.66zm0 0l8.24 -5.66 2.83 4.12 -8.24 5.66 -2.83 -4.12z"/>
  </g>
  <polyline class="fil1 str0" style="mask:url(#id2)" points="21.85,6.29 121.22,114.55 209.12,5.98 287.92,6.18 172.63,140.13 248.03,239.92 "/>
  <path class="fil2" d="M347.43 156.64l0 63.91 14.55 0c14.79,0 25.05,-2.41 30.78,-7.25 5.73,-4.81 8.58,-13.09 8.58,-24.77 0,-11.45 -3.11,-19.67 -9.38,-24.54 -6.24,-4.91 -16.74,-7.35 -31.46,-7.35l-13.07 0zm0 -66.91l0 60.5 17.87 0c11.2,0 19.38,-2.4 24.51,-7.24 5.13,-4.81 7.71,-12.42 7.71,-22.87 0,-11.06 -2.45,-18.9 -7.31,-23.51 -4.89,-4.57 -14.05,-6.88 -27.46,-6.88l-15.32 0zm-34.81 -6.61c0.34,0 0.77,0.04 1.38,0.1 0.6,0.07 1.03,0.1 1.37,0.1 0.2,0 0.8,0 1.78,0 5.7,0.27 11.36,0.4 17,0.4 5.3,0 11.5,-0.1 18.57,-0.3 7.08,-0.2 11.51,-0.3 13.28,-0.3 16.84,0 29.28,2.91 37.32,8.75 8.08,5.84 12.11,14.86 12.11,27.08 0,9.31 -2.75,16.86 -8.22,22.63 -5.46,5.78 -13.58,9.72 -24.31,11.79 13.15,2.7 22.84,6.91 29.04,12.62 6.2,5.74 9.32,13.39 9.32,22.9 0,6.92 -1.31,12.96 -3.92,18.17 -2.62,5.17 -6.51,9.38 -11.6,12.65 -4.06,2.61 -9.09,4.48 -15.09,5.58 -5.97,1.1 -15.36,1.67 -28.14,1.67 -2.88,0 -7.27,-0.07 -13.14,-0.2 -5.9,-0.14 -10.39,-0.2 -13.48,-0.2 -5.77,0 -10.29,0.03 -13.58,0.1 -3.32,0.06 -6.54,0.16 -9.69,0.3l0 -6.41c7.08,0 11.57,-0.91 13.45,-2.71 1.91,-1.77 2.85,-6.34 2.85,-13.62l0 -98.26c0,-7.38 -0.91,-11.89 -2.75,-13.56 -1.85,-1.63 -6.34,-2.53 -13.55,-2.67l0 -6.61zm178.02 27.45l-20.52 56.49 39.67 0 -19.15 -56.49zm3.82 -29.25l4.23 0 46.47 128.28c1.71,4.44 3.52,7.34 5.43,8.78 1.95,1.43 4.9,2.17 8.92,2.17l0.77 0 0 6.41c-4.89,-0.27 -9.35,-0.47 -13.34,-0.6 -4.03,-0.14 -7.34,-0.2 -10.03,-0.2 -3.92,0 -8.15,0.06 -12.64,0.2 -4.49,0.13 -9.12,0.33 -13.88,0.6l0 -6.41 0.97 0c4.39,0 7.61,-0.67 9.62,-2.01 2.05,-1.33 3.06,-3.47 3.06,-6.41 0,-1.03 -0.04,-2 -0.14,-2.9 -0.1,-0.87 -0.27,-1.64 -0.47,-2.27l-11.2 -33.29 -43.89 0 -7.88 21.84c-1.68,4.74 -2.82,8.24 -3.39,10.45 -0.53,2.23 -0.83,4.14 -0.83,5.77 0,3.21 0.8,5.41 2.41,6.68 1.61,1.23 4.59,1.97 8.92,2.24l0 6.31c-3.32,-0.27 -6.57,-0.47 -9.73,-0.6 -3.15,-0.14 -6.06,-0.2 -8.81,-0.2 -2.18,0 -4.73,0.06 -7.68,0.2 -2.95,0.13 -6.07,0.33 -9.42,0.6l0 -6.41 1.07 0c3.92,0 6.84,-0.7 8.68,-2.07 1.88,-1.37 3.66,-4.34 5.37,-8.88l47.41 -128.28zm163.5 11.99l1.71 -7.42 4.23 0c-0.1,4.04 -0.2,7.62 -0.27,10.72 -0.1,3.07 -0.14,5.68 -0.14,7.75 0,3.07 0.04,6.37 0.14,9.88 0.07,3.54 0.17,7.31 0.27,11.35l-4.63 0c-1.11,-12.25 -4.83,-21.6 -11.13,-28.01 -6.31,-6.44 -14.89,-9.65 -25.79,-9.65 -8.55,0 -15.52,2.54 -20.96,7.65 -5.39,5.07 -8.11,11.58 -8.11,19.56 0,6.91 2.04,12.49 6.1,16.76 4.06,4.28 11.94,8.58 23.68,12.89 19.64,7.38 32.29,14.06 37.95,20.1 5.67,6.04 8.52,13.85 8.52,23.44 0,11.82 -4.46,21.5 -13.41,29.08 -8.92,7.58 -20.49,11.35 -34.61,11.35 -7.14,0 -13.88,-1.2 -20.18,-3.64 -6.34,-2.4 -12.38,-6.08 -18.14,-10.98l-2.15 9.01 -4.46 0c0,-4.71 0.07,-9.62 0.2,-14.79 0.14,-5.14 0.2,-7.95 0.2,-8.38 0,-0.53 -0.06,-3.24 -0.2,-8.18 -0.13,-4.91 -0.2,-9.62 -0.2,-14.12l5.63 0c0.67,14.15 4.43,25.1 11.34,32.95 6.9,7.81 16.29,11.72 28.13,11.72 9.02,0 16.3,-2.57 21.76,-7.71 5.47,-5.18 8.18,-12.02 8.18,-20.54 0,-6.47 -2.07,-11.82 -6.2,-16.06 -4.12,-4.24 -11.67,-8.44 -22.67,-12.62 -1.17,-0.43 -2.98,-1.1 -5.4,-1.93 -12.57,-4.58 -21.35,-8.65 -26.32,-12.22 -5.06,-3.74 -8.72,-7.88 -11,-12.42 -2.31,-4.58 -3.45,-10.12 -3.45,-16.63 0,-12.35 3.99,-22.24 11.97,-29.72 7.95,-7.44 18.54,-11.18 31.72,-11.18 7.35,0 14.09,0.97 20.19,2.94 6.1,1.93 11.94,4.97 17.5,9.05zm143.08 -10.79c0.27,6.28 0.57,12.52 0.87,18.73 0.34,6.21 0.74,12.52 1.18,18.93l-5.03 0c-1.31,-12.15 -4.33,-20.26 -9.06,-24.34 -4.69,-4.07 -14.08,-6.11 -28.1,-6.11l-31.25 0 0 58.1 15.73 0c9.49,0 15.46,-1.4 17.94,-4.21 2.45,-2.8 3.89,-8.95 4.36,-18.43l4.83 0c-0.21,6.58 -0.34,12.19 -0.44,16.79 -0.1,4.61 -0.17,8.15 -0.17,10.62 0,3.34 0.07,7.35 0.17,12.09 0.1,4.74 0.23,10.25 0.44,16.59l-4.73 0c-0.54,-11.55 -2.05,-18.96 -4.53,-22.2 -2.48,-3.24 -8.45,-4.84 -17.87,-4.84l-15.73 0 0 66.31 39.9 0c13.92,0 23.38,-2.34 28.34,-7.05 4.96,-4.71 8.05,-13.82 9.22,-27.41l5.03 0c-0.91,8.55 -1.64,16.06 -2.11,22.57 -0.51,6.54 -0.87,12.62 -1.14,18.3l-114.04 0 0 -6.41c7.07,0 11.56,-0.91 13.44,-2.71 1.91,-1.77 2.85,-6.34 2.85,-13.65l0 -98.2c0,-7.38 -0.9,-11.88 -2.75,-13.55 -1.84,-1.67 -6.33,-2.57 -13.54,-2.71l0 -6.61c21.86,0 41.68,-0.06 59.45,-0.2 17.74,-0.13 33.33,-0.27 46.74,-0.4z"/>
  <path class="fil0" d="M869.5 88.52l0 130.81 16.12 0c9.29,0 16.5,-0.5 21.63,-1.47 5.1,-0.96 9.69,-2.6 13.75,-4.9 8.45,-4.61 14.82,-11.92 19.11,-21.94 4.3,-10.02 6.44,-22.47 6.44,-37.33 0,-13.19 -1.71,-24.37 -5.1,-33.55 -3.42,-9.22 -8.51,-16.39 -15.35,-21.54 -4.7,-3.67 -10.2,-6.24 -16.5,-7.78 -6.3,-1.53 -15.22,-2.3 -26.83,-2.3l-13.27 0zm-34.81 -6.61c0.4,0 0.94,0.03 1.68,0.1 0.7,0.07 1.24,0.1 1.57,0.1 0.24,0 1.04,0 2.35,0 5.43,0.27 10.53,0.4 15.32,0.4 4.26,0 9.86,-0.1 16.84,-0.3 6.97,-0.2 11.8,-0.3 14.48,-0.3 25.89,0 45.84,6.28 59.89,18.83 14.05,12.55 21.06,30.38 21.06,53.49 0,23.2 -6.64,40.93 -19.89,53.18 -13.27,12.22 -32.45,18.33 -57.6,18.33 -3.56,0 -9.33,-0.06 -17.34,-0.2 -8.01,-0.13 -14.32,-0.2 -18.91,-0.2 -5.84,0 -10.03,0.04 -12.61,0.1 -2.61,0.07 -4.86,0.17 -6.84,0.3l0 -6.41c7.08,0 11.57,-0.9 13.45,-2.7 1.91,-1.77 2.85,-6.34 2.85,-13.62l0 -98.26c0,-7.35 -0.91,-11.89 -2.75,-13.53 -1.85,-1.66 -6.34,-2.57 -13.55,-2.7l0 -6.61zm244.04 76.12c-7.21,3.08 -12.74,7.48 -16.56,13.23 -3.86,5.74 -5.77,12.42 -5.77,20.03 0,9.01 2.88,16.29 8.62,21.87 5.73,5.57 13.24,8.38 22.57,8.38 8.98,0 16.29,-2.74 21.92,-8.18 5.64,-5.44 8.45,-12.46 8.45,-21.07 0,-8.21 -2.51,-14.69 -7.51,-19.43 -5.03,-4.74 -15.59,-9.68 -31.72,-14.83zm24.35 -5.47c10.83,3.27 18.88,7.78 24.11,13.52 5.26,5.74 7.88,12.89 7.88,21.44 0,12.11 -4.3,21.83 -12.88,29.11 -8.58,7.28 -20.05,10.92 -34.37,10.92 -13.58,0 -24.51,-3.44 -32.83,-10.29 -8.31,-6.84 -12.47,-15.75 -12.47,-26.71 0,-8.44 2.45,-15.52 7.31,-21.26 4.89,-5.75 12.51,-10.49 22.83,-14.29 -8.51,-3.31 -14.72,-7.58 -18.54,-12.79 -3.86,-5.24 -5.77,-11.99 -5.77,-20.27 0,-11.32 3.73,-20.5 11.17,-27.51 7.41,-7.01 17.23,-10.52 29.41,-10.52 11.46,0 20.89,3.24 28.23,9.72 7.38,6.51 11.07,14.72 11.07,24.71 0,7.44 -2.12,14.02 -6.34,19.79 -4.23,5.78 -10.5,10.59 -18.81,14.43zm-6.07 -2.54c6,-3.07 10.53,-7.18 13.58,-12.35 3.05,-5.18 4.56,-11.35 4.56,-18.53 0,-8.72 -2.32,-15.8 -6.91,-21.17 -4.63,-5.38 -10.63,-8.05 -18.01,-8.05 -7.98,0 -14.48,2.54 -19.48,7.61 -4.99,5.08 -7.51,11.66 -7.51,19.67 0,7.68 2.45,13.96 7.34,18.8 4.93,4.84 13.72,9.51 26.43,14.02z"/>
 </g>
</svg>
